<svg height="511pt" viewBox="-60 0 511 511.99485" width="511pt" xmlns="http://www.w3.org/2000/svg"><path d="m261.441406 43.003906-54.273437 139.347656-20.136719-52.308593-7.339844-19.03125v-.082031l33.707032-85.503907c2.292968-6.414062 7.058593-11.636719 13.234374-14.507812 6.171876-2.871094 13.238282-3.148438 19.617188-.769531 1.222656.417968 2.394531.960937 3.5 1.621093l.511719.257813c.773437.433594 1.511719.917968 2.21875 1.449218.597656.425782 1.195312.941407 1.707031 1.367188.910156.738281 1.738281 1.566406 2.476562 2.472656 6.308594 6.976563 8.160157 16.910156 4.777344 25.6875zm0 0" fill="#e3e7f2"/><path d="m376.042969 213.753906c-51.625 51.628906-59.390625 131.328125-112.554688 182.101563-4.464843 4.050781-8.574219 8.476562-12.285156 13.226562-10.753906 14.507813-11.691406 31.574219-11.691406 48.980469v28.332031c-.027344 9.414063-7.652344 17.039063-17.066407 17.066407h-136.535156c-9.414062-.027344-17.039062-7.652344-17.066406-17.066407v-68.4375c-2.191406-9.226562-5.667969-18.105469-10.324219-26.367187-2.972656-5.207032-5.484375-10.660156-7.511719-16.300782-10.050781-21.558593-15.457031-44.992187-15.871093-68.777343l64.171875-93.695313 3.667968-5.289062 5.890626 1.875 8.789062 2.730468c8.601562 2.699219 17.824219-1.742187 21.074219-10.152343l15.105469-39.085938-40.875-106.664062c-4.355469-11.957031.734374-25.300781 11.945312-31.316407 1.0625-.617187 2.175781-1.128906 3.328125-1.539062 6.382813-2.355469 13.441406-2.070312 19.609375.796875 6.167969 2.871094 10.9375 8.082031 13.246094 14.480469l23.550781 61.269531v.082031l7.339844 19.03125 20.136719 52.308594 37.121093 89.089844 5.71875 13.738281 1.621094-.683594c13.9375-8.488281 25.644531-20.195312 34.132813-34.132812 13.910156-20.820313 38.996093-47.273438 57.085937-56.40625 3.425781-1.941407 7.25-3.082031 11.179687-3.328125 17.066407 0 34.132813 17.066406 17.066407 34.132812zm0 0" fill="#a4c2f7"/><path d="m351.808594 213.753906c-51.625 51.628906-59.390625 131.328125-112.554688 182.101563-4.464844 4.050781-8.574218 8.476562-12.289062 13.226562-10.75 14.507813-11.6875 31.574219-11.6875 48.980469v28.332031c-.03125 9.414063-7.652344 17.039063-17.066406 17.066407h-112.300782c-9.414062-.027344-17.039062-7.652344-17.066406-17.066407v-68.4375c-2.191406-9.226562-5.667969-18.105469-10.324219-26.367187-2.972656-5.207032-5.484375-10.660156-7.511719-16.300782-10.050781-21.558593-15.457031-44.992187-15.871093-68.777343l64.171875-93.695313c3.46875-.078125 6.820312-1.277344 9.558594-3.414062l8.789062 2.730468c8.601562 2.699219 17.824219-1.742187 21.074219-10.152343l15.105469-39.085938-40.875-106.664062c-4.355469-11.957031.734374-25.300781 11.945312-31.316407 5.601562 2.871094 9.878906 7.792969 11.949219 13.738282l23.550781 61.269531v.082031l7.339844 19.03125 20.136718 52.308594 34.886719 83.730469c2.015625 4.957031 6.351563 8.597656 11.582031 9.730469 5.230469 1.132812 10.683594-.390626 14.570313-4.066407l.316406-.304687 5.71875 13.738281 1.621094-.683594c13.9375-8.488281 25.644531-20.195312 34.132813-34.132812 13.910156-20.820313 38.996093-47.273438 57.085937-56.40625 5.925781 2.453125 10.085937 7.886719 10.914063 14.242187.828124 6.359375-1.804688 12.675782-6.902344 16.5625zm0 0" fill="#e3e7f2"/><path d="m120.554688 306.257812c-.851563.339844-1.621094.679688-2.472657.9375-12.378906 4.234376-25.957031-1.542968-31.488281-13.398437l-43.09375-92.925781c-3.667969-7.925782-3.042969-17.171875 1.65625-24.53125s12.824219-11.816406 21.554688-11.824219c9.960937.03125 19.007812 5.816406 23.210937 14.851563l43.09375 92.839843c2.871094 6.167969 3.171875 13.222657.835937 19.609375-2.339843 6.390625-7.121093 11.585938-13.296874 14.441406zm0 0" fill="#a4c2f7"/><path d="m88.46875 358.734375c-.851562.34375-1.621094.683594-2.472656.941406-12.378906 4.28125-25.988282-1.507812-31.488282-13.398437l-43.09375-92.84375c-5.90625-12.84375-.34375-28.046875 12.460938-34.046875 3.363281-1.578125 7.035156-2.394531 10.75-2.390625 9.96875.011718 19.023438 5.804687 23.210938 14.847656l43.09375 92.929688c2.878906 6.152343 3.183593 13.199218.84375 19.574218-2.339844 6.378906-7.128907 11.558594-13.304688 14.386719zm0 0" fill="#a4c2f7"/><path d="m118.082031 307.195312c-12.378906 4.234376-25.957031-1.542968-31.488281-13.398437l-43.09375-92.925781c-2.972656-6.378906-3.160156-13.707032-.511719-20.226563 2.648438-.984375 5.453125-1.472656 8.277344-1.449219 9.960937.027344 19.007813 5.816407 23.210937 14.847657l43.09375 92.84375c2.972657 6.40625 3.15625 13.757812.511719 20.308593zm0 0" fill="#e3e7f2"/><path d="m85.996094 359.675781c-12.378906 4.28125-25.988282-1.507812-31.488282-13.398437l-43.09375-92.84375c-2.972656-6.40625-3.160156-13.757813-.511718-20.308594 2.621094-.976562 5.394531-1.46875 8.191406-1.449219 9.992188 0 19.074219 5.792969 23.296875 14.847657l43.09375 92.925781c2.972656 6.378906 3.160156 13.707031.511719 20.226562zm0 0" fill="#e3e7f2"/><g fill="#fff"><path d="m69.101562 200.871094c-5.554687-11.988282-.996093-26.234375 10.484376-32.769532-9.636719-5.550781-21.753907-4.246093-29.984376 3.230469-8.234374 7.476563-10.699218 19.410157-6.101562 29.539063l8.234375 17.746094c2.714844-1.023438 5.589844-1.570313 8.492187-1.621094zm0 0"/><path d="m142.042969 209.515625.972656.3125 8.789063 2.730469c8.605468 2.699218 17.824218-1.742188 21.078124-10.152344l15.101563-39.082031-40.871094-106.667969c-4.246093-11.667969.519531-24.703125 11.289063-30.882812-6.550782-3.847657-14.476563-4.570313-21.617188-1.96875-1.152344.40625-2.265625.921874-3.328125 1.535156-11.210937 6.019531-16.300781 19.359375-11.945312 31.316406l40.875 106.667969-15.121094 39.082031c-1.074219 2.792969-2.878906 5.25-5.222656 7.109375zm0 0"/><path d="m35.683594 305.71875-.546875.792969c.414062 23.785156 5.820312 47.21875 15.871093 68.777343 2.027344 5.640626 4.539063 11.09375 7.511719 16.300782 4.65625 8.261718 8.132813 17.140625 10.324219 26.367187v68.4375c0 3.394531 1.019531 6.714844 2.925781 9.523438 1.859375 2.742187 4.464844 4.894531 7.511719 6.195312 2.09375.890625 4.351562 1.351563 6.628906 1.347657h25.601563c-2.28125.003906-4.535157-.457032-6.632813-1.347657-3.042968-1.300781-5.652344-3.453125-7.507812-6.195312-1.90625-2.808594-2.925782-6.128907-2.925782-9.523438v-68.4375c-2.195312-9.226562-5.667968-18.105469-10.328124-26.367187-2.96875-5.207032-5.480469-10.660156-7.507813-16.300782-10.050781-21.558593-15.460937-44.992187-15.871094-68.777343l.546875-.792969-24.269531-52.285156c-5.597656-12.023438-1.027344-26.332032 10.503906-32.886719-3.90625-2.304687-8.359375-3.53125-12.894531-3.550781-10.460938.027344-19.851562 6.410156-23.722656 16.128906-2.648438 6.550781-2.460938 13.902344.511718 20.308594zm0 0"/><path d="m120.929688 53.175781 39.691406 103.59375 27.039062 70.570313-15.9375 6.109375-27.042968-70.578125-39.6875-103.585938zm0 0"/></g><path d="m133.894531 127.796875c1.035157.433594 2.144531.660156 3.265625.675781 1.117188.039063 2.230469-.140625 3.277344-.527344 3.246094-1.222656 5.429688-4.285156 5.523438-7.753906.097656-3.464844-1.914063-6.644531-5.085938-8.042968l-1.5625-.496094c-.558594-.132813-1.132812-.191406-1.707031-.167969-.542969-.054687-1.085938-.027344-1.621094.074219-.558594.109375-1.109375.261718-1.648437.453125-2.101563.832031-3.808594 2.429687-4.777344 4.472656-.429688 1.039063-.652344 2.152344-.664063 3.277344-.066406 3.429687 1.890625 6.578125 5 8.035156zm0 0" fill="#428dff"/><path d="m205.292969 477.453125c4.710937 0 8.53125-3.820313 8.53125-8.535156 0-4.710938-3.820313-8.53125-8.53125-8.53125h-8.535157c-4.710937 0-8.53125 3.820312-8.53125 8.53125 0 4.714843 3.820313 8.535156 8.53125 8.535156zm0 0" fill="#428dff"/><path d="m102.890625 460.386719c-4.710937 0-8.53125 3.820312-8.53125 8.53125 0 4.714843 3.820313 8.535156 8.53125 8.535156h59.734375c4.714844 0 8.535156-3.820313 8.535156-8.535156 0-4.710938-3.820312-8.53125-8.535156-8.53125zm0 0" fill="#428dff"/><path d="m20.273438 211.671875c-8.214844 3.808594-14.578126 10.726563-17.691407 19.226563-3.117187 8.5-2.726562 17.890624 1.085938 26.101562l22.960937 49.496094c.320313 24.914062 5.921875 49.476562 16.445313 72.0625 2.230469 5.925781 4.914062 11.671875 8.027343 17.1875 4.105469 7.359375 7.207032 15.234375 9.226563 23.414062v67.234375c0 14.140625 11.460937 25.601563 25.597656 25.601563h136.535157c14.136718 0 25.601562-11.460938 25.601562-25.601563v-28.347656c0-16.023437.765625-31.445313 10-43.902344 3.410156-4.347656 7.179688-8.398437 11.273438-12.109375 28.261718-26.949218 44.175781-61.570312 59.554687-95.046875 14.878906-32.363281 28.917969-62.921875 53.203125-87.21875 8.589844-7.296875 11.679688-19.199219 7.730469-29.753906-5.675781-11.8125-17.726563-19.21875-30.828125-18.945313-23.332032 0-60.589844 41.378907-75.367188 63.539063-5.054687 7.675781-10.976562 14.742187-17.648437 21.0625-1.707031 1.550781-3.414063 3.054687-5.121094 4.488281-.636719.511719-1.304687 1.066406-1.882813 1.507813l-37.652343-90.453125 48.148437-125.257813c3.152344-8.492187 2.789063-17.890625-1.007812-26.113281-3.792969-8.226562-10.710938-14.597656-19.21875-17.707031-8.484375-3.160157-17.875-2.804688-26.097656.992187-8.21875 3.792969-14.585938 10.707032-17.6875 19.214844l-20.792969 53.855469-15.558594-40.46875c-3.078125-8.53125-9.4375-15.484375-17.667969-19.308594-8.226562-3.824219-17.636718-4.210937-26.148437-1.066406-17.664063 6.523437-26.753907 26.074219-20.351563 43.785156.023438.042969.050782.085937.082032.125l12.214843 31.875c1.089844 2.847656 3.617188 4.894531 6.628907 5.375 3.011718.476563 6.050781-.6875 7.96875-3.054687 1.921874-2.371094 2.433593-5.585938 1.339843-8.429688l-12.191406-31.710938c-2.367187-6.503906-.585937-13.789062 4.507813-18.46875 5.097656-4.679687 12.507812-5.835937 18.785156-2.925781 4.144531 1.9375 7.335937 5.46875 8.839844 9.789063l23.324218 60.679687c.066406.230469.152344.46875.238282.699219l27.554687 71.542969 40.15625 96.429687c-5.503906 2.425782-11.179687 4.445313-16.980469 6.03125-12.988281 3.433594-24.242187 11.566406-31.574218 22.828125-4.800782 7.371094-7.414063 15.949219-7.542969 24.746094 0 4.710937 3.820312 8.53125 8.535156 8.53125 4.710937 0 8.53125-3.820313 8.53125-8.53125.132813-5.574219 1.832031-11 4.90625-15.652344 5.132813-7.769531 12.992187-13.332031 22.027344-15.589843 9.070312-2.347657 17.800781-5.867188 25.964843-10.46875 4.523438-2.792969 8.855469-5.890626 12.960938-9.269532 2.210938-1.765625 4.585938-3.789062 7.222656-6.304687.484375-.46875 1.03125-.851563 1.507813-1.332031.179687-.234376.347656-.480469.503906-.734376 6.46875-6.488281 12.277344-13.605468 17.339844-21.246093 18.117187-27.1875 49.5625-55.9375 61.167969-55.9375 6.183593-.183594 11.972656 3.042969 15.0625 8.40625 1.378906 3.34375 0 7.101562-4.03125 11.160156-26.453126 26.453125-41.8125 59.855469-56.644532 92.160156-15.359375 33.496094-29.925781 65.136719-55.824218 89.832031-4.804688 4.378907-9.222657 9.160157-13.207032 14.292969-12.324218 16.632813-13.355468 35.839844-13.355468 54.066407v28.339843c0 4.714844-3.820313 8.535157-8.535157 8.535157h-136.53125c-4.714843 0-8.535156-3.820313-8.535156-8.535157v-68.453125c-.046875-.328125-.113281-.652344-.195313-.972656.015626-.332031.015626-.660156 0-.992188-2.386718-9.976562-6.140624-19.574218-11.152343-28.527343-2.710938-4.78125-5.042969-9.773438-6.972657-14.921875-.105468-.3125-.234374-.617188-.375-.914063-.058593-.128906-2.21875-4.703125-4.871093-11.851562 11.726562 11.597656 30.078125 13.132812 43.574219 3.648437 13.492187-9.488281 18.261718-27.273437 11.320312-42.238281l-1.980469-4.265625c1.039063.09375 2.074219.273438 3.113281.273438 11.65625-.003907 22.5-5.949219 28.769532-15.777344 6.269531-9.824219 7.089844-22.167969 2.179687-32.734375l-22.058593-47.574219c1.320312.214844 2.652343.328125 3.988281.332031 10.609375.019531 20.144531-6.484375 23.996093-16.375l7.105469-18.390625 17.921875 46.789063 15.9375-6.109375-30.09375-78.507813c-1.773437-4.265625-6.621094-6.347656-10.933594-4.695312-4.316406 1.652343-6.53125 6.4375-5 10.796875l3.054688 7.996094-13.917969 36.027343c-1.621093 4.222657-6.253906 6.445313-10.5625 5.070313l-11.042969-3.5-11.484374-24.746094c-5.058594-11.183594-15.730469-18.792969-27.949219-19.925781-12.222657-1.132813-24.109375 4.382812-31.136719 14.441406-7.03125 10.0625-8.113281 23.125-2.84375 34.207031l1.988281 4.265625c-5.976562-.589843-12 .410157-17.464843 2.902344zm201.171874-183.347656c1.839844-6.035157 6.855469-10.5625 13.046876-11.773438 6.1875-1.214843 12.542968 1.085938 16.523437 5.980469s4.933594 11.585938 2.480469 17.398438l-41.378906 107.691406-18.335938-47.617188zm-161.910156 146.324219c8.546875-3.96875 18.695313-.257813 22.664063 8.292968l13.175781 28.40625.085938.1875 29.863281 64.300782c2.570312 5.53125 1.996093 12.011718-1.511719 17.003906-3.503906 4.992187-9.40625 7.734375-15.480469 7.195312-6.078125-.539062-11.402343-4.28125-13.972656-9.8125l-22.101563-47.582031-21.027343-45.328125c-1.902344-4.109375-2.097657-8.804688-.542969-13.054688 1.558594-4.25 4.738281-7.707031 8.847656-9.609374zm-9.386718 60.808593 4.546874 9.8125 24.175782 52.121094 14.351562 30.933594c1.90625 4.105469 2.101563 8.800781.542969 13.050781-1.554687 4.25-4.738281 7.707031-8.84375 9.613281-4.109375 1.90625-8.800781 2.101563-13.054687.542969-4.25-1.558594-7.707032-4.738281-9.609376-8.847656l-43.101562-92.867188c-3.765625-8.511718-.019531-18.46875 8.425781-22.386718 8.441407-3.914063 18.464844-.34375 22.53125 8.027343zm0 0" fill="#428dff"/></svg>