<?xml version="1.0" encoding="utf-8"?>
<!-- Generator: Adobe Illustrator 24.2.0, SVG Export Plug-In . SVG Version: 6.00 Build 0)  -->
<svg version="1.1" id="Layer_1" xmlns="http://www.w3.org/2000/svg" xmlns:xlink="http://www.w3.org/1999/xlink" x="0px" y="0px"
	 viewBox="0 0 2000 2000" style="enable-background:new 0 0 2000 2000;" xml:space="preserve">
<style type="text/css">
	.st0{fill:#FFFFFF;}
	.st1{display:none;}
	.st2{display:inline;fill:#D2B493;}
	.st3{display:inline;fill:#F0DCBE;}
	.st4{display:inline;fill:#EBD2AF;}
	.st5{fill:url(#SVGID_1_);}
</style>
<path class="st0" d="M1701.16,1952.82H298.84c-138.99,0-251.66-112.67-251.66-251.66V298.84c0-138.99,112.67-251.66,251.66-251.66
	h1402.32c138.99,0,251.66,112.67,251.66,251.66v1402.32C1952.82,1840.15,1840.15,1952.82,1701.16,1952.82z"/>
<g class="st1">
	<path class="st2" d="M1561.64,902.02c1.51-8.28-2.6-22.28-5.83-29.65c0,0-9.64-12.5-20.69-16.48l-521.15-187.71
		c-9.02-3.25-18.9-3.25-27.92,0L464.89,855.89c-18.04,6.5-20.69,16.48-20.69,16.48c-0.14,1.16-6.54,28.51-6.54,29.93v645.41
		c0,17.37,10.89,32.87,27.24,38.76l521.15,187.71c4.51,1.62,9.24,2.44,13.96,2.44c4.72,0,9.45-0.81,13.96-2.44l521.15-187.71
		c16.34-5.89,27.24-21.39,27.24-38.76l0-639.1C1562.35,906.01,1562.1,903.85,1561.64,902.02L1561.64,902.02z"/>
	<path class="st3" d="M1000,665.74c-4.72,0-9.45,0.81-13.96,2.44L464.89,855.89c-18.04,6.5-20.69,16.48-20.69,16.48
		c-0.03,0.28-6.38,26.65-6.4,26.94L1000,1083.28V665.74z"/>
	<path class="st4" d="M444.19,872.36l-98.38,171.4c-24.88,43.34-5.75,98.67,40.58,117.4l393.66,159.16
		c37.96,15.35,81.43,0.49,102.06-34.88L1000,1083.28L444.19,872.36z"/>
	<path class="st2" d="M1562.35,908.6c0-2.59-0.25-4.75-0.71-6.59c1.92-10.5-5.83-29.65-5.83-29.65
		c-4.72-7.34-11.84-13.29-20.69-16.48l-521.15-187.71c-4.51-1.62-9.23-2.44-13.96-2.44v417.54l562.35-174.1V908.6z"/>
	<path class="st4" d="M1000,1083.28v693.33c4.72,0,9.45-0.81,13.96-2.44l521.15-187.71c16.34-5.88,27.24-21.39,27.24-38.76l0-638.52
		L1000,1083.28z"/>
	<path class="st3" d="M1555.81,872.36L1000,1083.28l117.88,202.16c20.62,35.37,64.1,50.23,102.06,34.88l393.66-159.16
		c46.33-18.73,65.45-74.06,40.58-117.4L1555.81,872.36z"/>
</g>
<g>
	<g>
		<g>
			<linearGradient id="SVGID_1_" gradientUnits="userSpaceOnUse" x1="765.0096" y1="1276.4128" x2="1186.9995" y2="545.5049">
				<stop  offset="0" style="stop-color:#FF4848"/>
				<stop  offset="1" style="stop-color:#FF966E"/>
			</linearGradient>
			<path class="st5" d="M1211.45,594.74c-108.05,0-178.36,56.32-211.45,91.01c-33.09-34.69-103.4-91.01-211.45-91.01
				c-133.39,0-239.64,114.81-239.64,261.36c0,164.65,137.06,397.44,439.42,546.45c3.67,1.81,7.69,2.71,11.67,2.71s8-0.9,11.67-2.71
				c302.35-149.01,439.42-381.8,439.42-546.45C1451.08,709.55,1344.84,594.74,1211.45,594.74z"/>
		</g>
	</g>
</g>
</svg>
